<svg xmlns="http://www.w3.org/2000/svg" viewBox="0 0 71.7 68.66">
  <defs>
    <style>
      .cls-1 {
        fill: #b7a385;
      }
    </style>
  </defs>
  <title>prize_1</title>
  <g id="Layer_2" data-name="Layer 2">
    <g id="prize_1">
      <g>
        <path class="cls-1" d="M70.7,40.32c-.52-.15-1.61.72-2.45,1.56a5.3,5.3,0,0,0-1.49,2.28c-.39,1.16-.6,3.13-1.84,3.74a1.49,1.49,0,0,1-.74.16,31.8,31.8,0,0,0,2.75-7.28c.14-.64.17-1,.82-1.39,3.2-1.86,4.14-4.49,3.91-8.14-.07-1.15-.27-2-.61-2-.54,0-1.3,1.19-1.84,2.24a5.3,5.3,0,0,0-.71,2.63c0,1.22.4,3.16-.59,4.13a1.49,1.49,0,0,1-.65.38,31.78,31.78,0,0,0,.36-7.78c-.07-.65-.15-1,.35-1.57,2.47-2.76,2.55-5.55,1.21-9-.42-1.08-.89-1.85-1.2-1.74-.51.19-.87,1.53-1.06,2.7A5.3,5.3,0,0,0,67,24c.37,1.17,1.36,2.88.71,4.11a1.49,1.49,0,0,1-.5.56,31.79,31.79,0,0,0-2.06-7.51A1.62,1.62,0,0,1,65,19.55a7.61,7.61,0,0,0-1.37-8.33c-.75-.88-1.49-1.55-1.68-1.28-.46.64-.08,4,.55,4.89s2.19,2.32,1.95,3.69a1.36,1.36,0,0,1-.31.64,30.91,30.91,0,0,0-3.55-5.6A1.67,1.67,0,0,1,60,12a7.28,7.28,0,0,0-3.36-7.51c-1-.65-1.78-1-2-.77-.56.79,1,3.65,1.75,4.26,1,.76,2.6,1.8,2.75,3.18a1.66,1.66,0,0,1-.13.84,28.5,28.5,0,0,0-4.16-3.9c-.5-.37-.81-.54-.88-1.24-.37-3.47-2.28-5.29-5.52-6.5-1-.38-1.86-.55-2-.25-.28.73,2.24,3.33,3.22,3.77s2.88,1.18,3.33,2.4a1.37,1.37,0,0,1,.07.78c-.65-.49-2.37-1.49-3.54-2.19-1.9-1.14-3.76-2.82-6-3A13.38,13.38,0,0,0,41.3,2c-.88.12-.81.5-.21,1.07A9.39,9.39,0,0,0,47,5.48c2.56.16,3.24.73,5.79,2.11a.73.73,0,0,1-.19.08A8.12,8.12,0,0,1,50,7a4.86,4.86,0,0,0-2.83-.21,13.38,13.38,0,0,0-2.19.6c-.82.33-.66.68.06,1.09A8.91,8.91,0,0,0,52.44,9a6.66,6.66,0,0,1,.9-.34c.21,0,.29-.12,1,.4a28.24,28.24,0,0,1,3.93,3.55,8.13,8.13,0,0,1-2.5-1.27,4.4,4.4,0,0,0-2.62-.89,13.9,13.9,0,0,0-2.31-.05c-.93.13-.88.56-.22,1.14a9.73,9.73,0,0,0,7.19,2.26,7,7,0,0,1,1-.12c.21.06.33-.05,1,.68a28.47,28.47,0,0,1,3.46,5.25l-.2,0c-.47-.13-1.3-1.14-2.08-2a6.75,6.75,0,0,0-4.23-2.08c-.93-.13-1,.3-.52,1a9.42,9.42,0,0,0,6.2,4.11,7,7,0,0,1,1,.16c.19.11.33,0,.75.93a32.94,32.94,0,0,1,2.06,6.89A10.91,10.91,0,0,1,65,26.12a5.16,5.16,0,0,0-1.84-2.37,14.18,14.18,0,0,0-2-1.3c-.84-.41-1,0-.82.82a9.44,9.44,0,0,0,4.85,6.22,7,7,0,0,1,.9.46c.15.17.3.14.43,1.11a32.92,32.92,0,0,1-.17,7.19,10.93,10.93,0,0,1-.44-2.76,5.15,5.15,0,0,0-1-2.83,14.13,14.13,0,0,0-1.52-1.86c-.68-.65-.95-.34-1,.53A9.44,9.44,0,0,0,65,38.76a7,7,0,0,1,.72.72c.09.2.24.23.06,1.19a32.94,32.94,0,0,1-2.38,6.78,10.92,10.92,0,0,1,.44-2.76,5.15,5.15,0,0,0-.1-3,14.14,14.14,0,0,0-.87-2.24c-.44-.83-.79-.62-1.14.19A9.44,9.44,0,0,0,62,47.52a7.06,7.06,0,0,1,.46.91c0,.22.16.29-.31,1.15a32.94,32.94,0,0,1-4.36,5.72,11,11,0,0,1,1.27-2.49,5.16,5.16,0,0,0,.84-2.89,14.22,14.22,0,0,0-.14-2.4c-.16-.92-.57-.83-1.15-.18a9.44,9.44,0,0,0-2.18,7.58,7,7,0,0,1,.16,1c0,.22.06.33-.65,1A32.94,32.94,0,0,1,50,61a10.94,10.94,0,0,1,2-2,5.15,5.15,0,0,0,1.69-2.49,14.22,14.22,0,0,0,.61-2.33c.13-.93-.28-1-1-.52a9.44,9.44,0,0,0-4.42,6.54,7,7,0,0,1-.16,1c-.11.19,0,.33-.93.75a32.93,32.93,0,0,1-6.89,2.06,10.93,10.93,0,0,1,2.49-1.27,5.15,5.15,0,0,0,2.37-1.84,14.18,14.18,0,0,0,1.3-2c.41-.84,0-1-.82-.82A9.44,9.44,0,0,0,40,63c-.21.42-.37,1-.88,1.19-1.13.35-2.21.65-3.27,1-1.05-.33-2.14-.63-3.27-1-.51-.16-.66-.77-.88-1.19a9.44,9.44,0,0,0-6.22-4.85c-.86-.19-1.23,0-.82.82a14.18,14.18,0,0,0,1.3,2,5.15,5.15,0,0,0,2.37,1.84,10.93,10.93,0,0,1,2.49,1.27A32.93,32.93,0,0,1,23.94,62c-.88-.42-.81-.56-.93-.75a7,7,0,0,1-.16-1,9.44,9.44,0,0,0-4.42-6.54c-.76-.44-1.17-.41-1,.52A14.24,14.24,0,0,0,18,56.55,5.15,5.15,0,0,0,19.7,59a10.94,10.94,0,0,1,2,2,32.94,32.94,0,0,1-5.91-4.09c-.71-.67-.6-.78-.65-1a7,7,0,0,1,.16-1,9.44,9.44,0,0,0-2.18-7.58c-.58-.66-1-.75-1.15.18a14.24,14.24,0,0,0-.14,2.4,5.16,5.16,0,0,0,.84,2.89,11,11,0,0,1,1.27,2.49,32.93,32.93,0,0,1-4.36-5.72c-.47-.86-.33-.93-.31-1.15a7.06,7.06,0,0,1,.46-.91A9.44,9.44,0,0,0,10,39.64c-.35-.8-.7-1-1.14-.19a14.14,14.14,0,0,0-.87,2.24,5.15,5.15,0,0,0-.1,3,10.92,10.92,0,0,1,.44,2.76A32.93,32.93,0,0,1,5.9,40.67c-.18-1,0-1,.06-1.19a7,7,0,0,1,.72-.72,9.44,9.44,0,0,0,2.69-7.42c-.09-.87-.36-1.18-1-.53a14.14,14.14,0,0,0-1.52,1.86,5.15,5.15,0,0,0-1,2.83,10.93,10.93,0,0,1-.44,2.76,32.92,32.92,0,0,1-.17-7.19c.13-1,.28-.95.43-1.11a7,7,0,0,1,.9-.46,9.44,9.44,0,0,0,4.85-6.22c.19-.86,0-1.23-.82-.82a14.18,14.18,0,0,0-2,1.3,5.16,5.16,0,0,0-1.84,2.37,10.91,10.91,0,0,1-1.27,2.49,32.93,32.93,0,0,1,2.06-6.89c.42-.88.56-.81.75-.93a7,7,0,0,1,1-.16,9.42,9.42,0,0,0,6.2-4.11c.48-.74.41-1.17-.52-1a6.75,6.75,0,0,0-4.23,2.08c-.79.88-1.61,1.89-2.08,2l-.2,0a28.48,28.48,0,0,1,3.46-5.25c.65-.73.76-.63,1-.68a7,7,0,0,1,1,.12A9.73,9.73,0,0,0,21,11.54c.66-.58.71-1-.22-1.14a13.9,13.9,0,0,0-2.31.05,4.4,4.4,0,0,0-2.62.89,8.13,8.13,0,0,1-2.5,1.27,28.25,28.25,0,0,1,3.93-3.55c.76-.52.84-.4,1-.4a6.66,6.66,0,0,1,.9.34,8.91,8.91,0,0,0,7.43-.52c.72-.41.88-.76.06-1.09a13.38,13.38,0,0,0-2.19-.6A4.86,4.86,0,0,0,21.73,7a8.12,8.12,0,0,1-2.65.66.73.73,0,0,1-.19-.08c2.54-1.38,3.23-2,5.79-2.11a9.39,9.39,0,0,0,5.93-2.42c.59-.58.66-1-.21-1.07a13.39,13.39,0,0,0-2.27,0c-2.28.14-4.14,1.82-6,3-1.16.7-2.89,1.7-3.54,2.19a1.37,1.37,0,0,1,.07-.78c.45-1.23,2.28-1.93,3.33-2.4s3.5-3,3.22-3.77c-.12-.29-1-.13-2,.25-3.24,1.21-5.14,3-5.52,6.5-.08.7-.38.88-.88,1.24A28.5,28.5,0,0,0,12.62,12a1.66,1.66,0,0,1-.13-.84c.15-1.38,1.79-2.42,2.75-3.18C16,7.42,17.55,4.55,17,3.77c-.19-.27-1,.11-2,.77A7.28,7.28,0,0,0,11.66,12a1.67,1.67,0,0,1-.59,1.5,30.92,30.92,0,0,0-3.55,5.6,1.36,1.36,0,0,1-.31-.64C7,17.14,8.45,15.82,9.16,14.82s1-4.25.55-4.89c-.2-.27-.93.4-1.68,1.28a7.61,7.61,0,0,0-1.37,8.33,1.62,1.62,0,0,1-.15,1.61,31.78,31.78,0,0,0-2.06,7.51,1.49,1.49,0,0,1-.5-.56c-.65-1.22.34-2.94.71-4.11a5.3,5.3,0,0,0,.13-2.72c-.19-1.17-.55-2.51-1.06-2.7-.31-.12-.78.66-1.2,1.74-1.35,3.4-1.27,6.2,1.21,9,.5.56.42.92.35,1.57a31.78,31.78,0,0,0,.36,7.78,1.49,1.49,0,0,1-.65-.38c-1-1-.58-2.9-.59-4.13a5.3,5.3,0,0,0-.71-2.63c-.54-1.06-1.3-2.22-1.84-2.24-.33,0-.54.87-.61,2-.23,3.65.71,6.28,3.91,8.14.65.38.68.75.82,1.39a31.79,31.79,0,0,0,2.75,7.28,1.49,1.49,0,0,1-.74-.16c-1.24-.61-1.45-2.58-1.84-3.74a5.3,5.3,0,0,0-1.49-2.28C2.61,41,1.53,40.18,1,40.32c-.32.09-.24,1,0,2.11C2,46,3.67,48.19,7.29,49c.73.16.88.5,1.21,1.07a31.78,31.78,0,0,0,4.86,6.08,1.49,1.49,0,0,1-.75.07c-1.37-.2-2.18-2-2.9-3a5.3,5.3,0,0,0-2.12-1.71c-1.06-.54-2.36-1-2.81-.73-.28.18.08,1,.7,2,2,3.09,4.27,4.67,8,4.29.74-.08,1,.2,1.48.64A31.79,31.79,0,0,0,21.41,62a1.49,1.49,0,0,1-.69.3C19.36,62.5,18,61,17,60.32a5.3,5.3,0,0,0-2.55-1c-1.17-.18-2.56-.25-2.9.17-.21.26.39.94,1.28,1.68,2.82,2.33,5.5,3.12,8.89,1.62a1.62,1.62,0,0,1,1.61.15A31.78,31.78,0,0,0,30.87,65a1.49,1.49,0,0,1-.56.5c-1.22.65-2.94-.34-4.11-.71a5.3,5.3,0,0,0-2.72-.13c-1.17.19-2.51.55-2.7,1.06-.12.31.66.78,1.74,1.2,3.4,1.34,6.2,1.27,9-1.21.56-.5.74-.42,1.39-.35a10.58,10.58,0,0,1,1.46.27,15,15,0,0,0-3.7,2c-.6.27.23,1.2.58,1a23.87,23.87,0,0,1,4.65-2.48,23.86,23.86,0,0,1,4.65,2.48c.35.23,1.18-.69.58-1a15,15,0,0,0-3.7-2,10.58,10.58,0,0,1,1.46-.27c.65-.07.83-.15,1.39.35,2.76,2.47,5.55,2.55,9,1.21,1.08-.43,1.85-.89,1.74-1.2-.19-.51-1.53-.87-2.7-1.06a5.3,5.3,0,0,0-2.72.13c-1.17.37-2.89,1.36-4.11.71a1.49,1.49,0,0,1-.56-.5A31.78,31.78,0,0,0,48.33,63a1.62,1.62,0,0,1,1.61-.15c3.39,1.5,6.07.71,8.89-1.62.89-.74,1.49-1.42,1.28-1.68-.34-.43-1.73-.36-2.9-.17a5.3,5.3,0,0,0-2.55,1c-1,.71-2.32,2.19-3.69,1.95a1.49,1.49,0,0,1-.69-.3,31.79,31.79,0,0,0,6.5-4.28c.49-.44.74-.72,1.48-.64,3.68.38,6-1.2,8-4.29.62-1,1-1.81.7-2-.45-.3-1.75.19-2.81.73A5.3,5.3,0,0,0,62,53.2c-.73,1-1.53,2.8-2.9,3a1.49,1.49,0,0,1-.75-.07A31.78,31.78,0,0,0,63.2,50c.33-.57.48-.91,1.21-1.07,3.62-.78,5.33-3,6.24-6.54C70.94,41.32,71,40.41,70.7,40.32Z"/>
        <path class="cls-1" d="M50.55,43.8v-4H21.72v4ZM47,40.93l2.07.9-2.07.9-2.07-.9Zm-5.44,0,2.07.9-2.07.9-2.07-.9Zm-5.44,0,2.07.9-2.07.9-2.07-.9Zm-5.44,0,2.07.9-2.07.9-2.07-.9Zm-5.44,0,2.07.9-2.07.9-2.07-.9Z"/>
        <path class="cls-1" d="M21.87,45.87H50.5a.64.64,0,1,0,0-1.27H21.87a.64.64,0,1,0,0,1.27Z"/>
        <path class="cls-1" d="M35.59,21a2.13,2.13,0,0,0,0,4.16v.53H33.75v1.59c-2.69-2.55-7.73-3.73-7.68,1.16,0,3.58,2.2,7.69,4,10.67H42.32c1.79-3,4-7.09,4-10.67.05-5-5.12-3.68-7.78-1.06V25.64H36.68v-.53a2.13,2.13,0,0,0,0-4.16V20.3h2V19.24h-2v-2H35.59v2h-2V20.3h2Zm-7.71,5.58a.69.69,0,0,1,.87.41.66.66,0,0,1-.42.85.68.68,0,0,1-.87-.41A.66.66,0,0,1,27.88,26.54Zm-.58,2.95a.66.66,0,0,1,.42-.85.69.69,0,0,1,.87.41.66.66,0,0,1-.42.85A.69.69,0,0,1,27.3,29.48Zm.48,2.1a.66.66,0,0,1,.42-.85.68.68,0,0,1,.87.41.66.66,0,0,1-.42.85A.68.68,0,0,1,27.78,31.58Zm.78,2.1a.66.66,0,0,1,.42-.85.69.69,0,0,1,.87.41.66.66,0,0,1-.42.85A.68.68,0,0,1,28.56,33.68Zm1.93,2.51a.69.69,0,0,1-.87-.41.66.66,0,0,1,.42-.85.69.69,0,0,1,.87.41A.66.66,0,0,1,30.49,36.18Zm1.23,2.1a.68.68,0,0,1-.87-.41.66.66,0,0,1,.42-.85.69.69,0,0,1,.87.41A.66.66,0,0,1,31.72,38.28Zm2-.66c-2-2.76-4.13-6.25-4.11-9.37,0-2.76,3.11-.09,4.11.81Zm7.77.25a.68.68,0,0,1-.87.41.66.66,0,0,1-.42-.85A.69.69,0,0,1,41.1,37,.66.66,0,0,1,41.52,37.87Zm1.23-2.1a.69.69,0,0,1-.87.41.66.66,0,0,1-.42-.85.69.69,0,0,1,.87-.41A.66.66,0,0,1,42.75,35.77Zm2.32-6.29a.69.69,0,0,1-.87.41.66.66,0,0,1-.42-.85.69.69,0,0,1,.87-.41A.66.66,0,0,1,45.07,29.48Zm-1.45-2.54a.68.68,0,0,1,.87-.41.66.66,0,0,1,.42.85.68.68,0,0,1-.87.41A.66.66,0,0,1,43.62,26.95Zm-.32,4.19a.68.68,0,0,1,.87-.41.66.66,0,0,1,.42.85.69.69,0,0,1-.87.41A.66.66,0,0,1,43.3,31.14Zm.09,1.69a.66.66,0,0,1,.42.85.68.68,0,0,1-.87.41.66.66,0,0,1-.42-.85A.69.69,0,0,1,43.39,32.83Zm-4.87-3.68c.86-.78,4.2-3.76,4.21-.9,0,3.18-2.2,6.73-4.21,9.51Zm-2.38,9.43a.67.67,0,1,1,.68-.67A.67.67,0,0,1,36.13,38.58Zm0-2.22a.67.67,0,1,1,.68-.67A.67.67,0,0,1,36.13,36.35Zm0-2.22a.67.67,0,1,1,.68-.67A.67.67,0,0,1,36.13,34.13Zm0-2.22a.67.67,0,1,1,.68-.67A.67.67,0,0,1,36.13,31.91Zm0-2.22a.67.67,0,1,1,.68-.67A.67.67,0,0,1,36.13,29.69Zm0-3.56a.67.67,0,1,1-.68.67A.67.67,0,0,1,36.13,26.13Z"/>
        <path class="cls-1" d="M50.76,39.07a4.41,4.41,0,0,0,.38-.34c4.61-4.57,1.69-11.47-4.34-12.28a5.59,5.59,0,0,1,.3,2c0,3.58-2,7.55-3.86,10.66Z"/>
        <path class="cls-1" d="M21.23,38.73a4.41,4.41,0,0,0,.38.34h7.52C27.3,36,25.31,32,25.27,28.4a5.59,5.59,0,0,1,.3-2C19.54,27.26,16.62,34.16,21.23,38.73Z"/>
        <path class="cls-1" d="M33,29.55a14.88,14.88,0,0,0-1.2-1,5.14,5.14,0,0,0-1.19-.65,2.13,2.13,0,0,0,0,.31c0,2.1,1.09,4.45,2.41,6.58Z"/>
        <path class="cls-1" d="M40.62,28.59a15.26,15.26,0,0,0-1.3,1.05V35c1.36-2.17,2.52-4.59,2.51-6.74a2.11,2.11,0,0,0,0-.31A5.11,5.11,0,0,0,40.62,28.59Z"/>
      </g>
    </g>
  </g>
</svg>
